{
  "accessors": [
    {
      "bufferView": 2,
      "componentType": 5126,
      "count": 22484,
      "max": [
        1.2103139162063599,
        0.7092326283454895,
        0.8561447858810425
      ],
      "min": [
        -0.3096190392971039,
        -0.6297098398208618,
        -1.2499074935913086
      ],
      "type": "VEC3"
    },
    {
      "bufferView": 2,
      "byteOffset": 269808,
      "componentType": 5126,
      "count": 22484,
      "max": [
        1.0,
        1.0,
        1.0
      ],
      "min": [
        -1.0,
        -1.0,
        -1.0
      ],
      "type": "VEC3"
    },
    {
      "bufferView": 3,
      "componentType": 5126,
      "count": 22484,
      "max": [
        1.0,
        1.0,
        1.0,
        1.0
      ],
      "min": [
        -1.0,
        -1.0,
        -1.0,
        -1.0
      ],
      "type": "VEC4"
    },
    {
      "bufferView": 1,
      "componentType": 5126,
      "count": 22484,
      "max": [
        0.9998236298561096,
        0.9998327493667603
      ],
      "min": [
        0.00015936620184220374,
        0.00016838312149047852
      ],
      "type": "VEC2"
    },
    {
      "bufferView": 1,
      "byteOffset": 179872,
      "componentType": 5126,
      "count": 22484,
      "max": [
        0.9998236298561096,
        0.9998327493667603
      ],
      "min": [
        0.00015936620184220374,
        0.00016838312149047852
      ],
      "type": "VEC2"
    },
    {
      "bufferView": 1,
      "byteOffset": 359744,
      "componentType": 5126,
      "count": 22484,
      "max": [
        0.9998236298561096,
        0.9998327493667603
      ],
      "min": [
        0.00015936620184220374,
        0.00016838312149047852
      ],
      "type": "VEC2"
    },
    {
      "bufferView": 1,
      "byteOffset": 539616,
      "componentType": 5126,
      "count": 22484,
      "max": [
        0.9998236298561096,
        0.9998327493667603
      ],
      "min": [
        0.00015936620184220374,
        0.00016838312149047852
      ],
      "type": "VEC2"
    },
    {
      "bufferView": 1,
      "byteOffset": 719488,
      "componentType": 5126,
      "count": 22484,
      "max": [
        0.9998236298561096,
        0.9998327493667603
      ],
      "min": [
        0.00015936620184220374,
        0.00016838312149047852
      ],
      "type": "VEC2"
    },
    {
      "bufferView": 0,
      "componentType": 5125,
      "count": 86031,
      "type": "SCALAR"
    }
  ],
  "asset": {
    "extras": {
      "author": "antoineallardchoquette (https://sketchfab.com/antoineallardchoquette)",
      "license": "CC-BY-4.0 (http://creativecommons.org/licenses/by/4.0/)",
      "source": "https://sketchfab.com/3d-models/sony-a6100-camera-game-props-485a9d31df964df4b3ddf75c8513eead",
      "title": "Sony A6100 Camera Game Props"
    },
    "generator": "Sketchfab-13.87.0",
    "version": "2.0"
  },
  "bufferViews": [
    {
      "buffer": 0,
      "byteLength": 344124,
      "name": "floatBufferViews",
      "target": 34963
    },
    {
      "buffer": 0,
      "byteLength": 899360,
      "byteOffset": 344124,
      "byteStride": 8,
      "name": "floatBufferViews",
      "target": 34962
    },
    {
      "buffer": 0,
      "byteLength": 539616,
      "byteOffset": 1243484,
      "byteStride": 12,
      "name": "floatBufferViews",
      "target": 34962
    },
    {
      "buffer": 0,
      "byteLength": 359744,
      "byteOffset": 1783100,
      "byteStride": 16,
      "name": "floatBufferViews",
      "target": 34962
    }
  ],
  "buffers": [
    {
      "byteLength": 2142844,
      "uri": "scene.bin"
    }
  ],
  "extensionsUsed": [
    "KHR_texture_transform"
  ],
  "images": [
    {
      "uri": "textures/Sony_baseColor.png"
    },
    {
      "uri": "textures/Sony_metallicRoughness.png"
    },
    {
      "uri": "textures/Sony_normal.png"
    }
  ],
  "materials": [
    {
      "doubleSided": true,
      "name": "Sony",
      "normalTexture": {
        "index": 2,
        "texCoord": 2
      },
      "occlusionTexture": {
        "index": 1,
        "texCoord": 3
      },
      "pbrMetallicRoughness": {
        "baseColorTexture": {
          "extensions": {
            "KHR_texture_transform": {
              "scale": [
                1,
                -0.9999999999999996
              ]
            }
          },
          "index": 0
        },
        "metallicRoughnessTexture": {
          "index": 1,
          "texCoord": 1
        }
      }
    }
  ],
  "meshes": [
    {
      "name": "Object_0",
      "primitives": [
        {
          "attributes": {
            "NORMAL": 1,
            "POSITION": 0,
            "TANGENT": 2,
            "TEXCOORD_0": 3,
            "TEXCOORD_1": 4,
            "TEXCOORD_2": 5,
            "TEXCOORD_3": 6,
            "TEXCOORD_4": 7
          },
          "indices": 8,
          "material": 0,
          "mode": 4
        }
      ]
    }
  ],
  "nodes": [
    {
      "children": [
        1
      ],
      "matrix": [
        1.0,
        0.0,
        0.0,
        0.0,
        0.0,
        2.220446049250313e-16,
        -1.0,
        0.0,
        0.0,
        1.0,
        2.220446049250313e-16,
        0.0,
        0.0,
        0.0,
        0.0,
        1.0
      ],
      "name": "Sketchfab_model"
    },
    {
      "children": [
        2
      ],
      "name": "root"
    },
    {
      "children": [
        3
      ],
      "matrix": [
        1.0,
        0.0,
        0.0,
        0.0,
        0.0,
        2.220446049250313e-16,
        1.0,
        0.0,
        0.0,
        -1.0,
        2.220446049250313e-16,
        0.0,
        0.0,
        0.0,
        0.0,
        1.0
      ],
      "name": "GLTF_SceneRootNode"
    },
    {
      "children": [
        4
      ],
      "matrix": [
        1.0,
        0.0,
        0.0,
        0.0,
        0.0,
        1.0,
        0.0,
        0.0,
        0.0,
        0.0,
        1.0,
        0.0,
        0.0,
        0.0,
        -0.07864141464233398,
        1.0
      ],
      "name": "Sony.001_0"
    },
    {
      "mesh": 0,
      "name": "Object_4"
    }
  ],
  "samplers": [
    {
      "magFilter": 9729,
      "minFilter": 9987,
      "wrapS": 10497,
      "wrapT": 10497
    }
  ],
  "scene": 0,
  "scenes": [
    {
      "name": "Sketchfab_Scene",
      "nodes": [
        0
      ]
    }
  ],
  "textures": [
    {
      "sampler": 0,
      "source": 0
    },
    {
      "sampler": 0,
      "source": 1
    },
    {
      "sampler": 0,
      "source": 2
    }
  ]
}
